<svg xmlns="http://www.w3.org/2000/svg" viewBox="0 0 129.34 343.75"><defs><style>.cls-1{fill:#707070;}</style></defs><title>Recurso 1</title><g id="Capa_2" data-name="Capa 2"><g id="Capa_1-2" data-name="Capa 1"><path class="cls-1" d="M5.85,6.11C16.14,10,26.41,14,36,19.52a46.81,46.81,0,0,1,6.85,4.75,21,21,0,0,1,3,3.07,7.84,7.84,0,0,1,1.63,4.18A5.44,5.44,0,0,1,47,33.85a9.3,9.3,0,0,1-1.2,1.92c-.9,1.13-2,2.09-2.67,3-.08.11-.12.22-.19.33s-.07.19-.08.27a.44.44,0,0,0,.09.35,2.21,2.21,0,0,0,1.2.62,15.51,15.51,0,0,0,3.84.26c5.37-.19,10.81-1.12,16.33-1.6,1.39-.12,2.78-.21,4.21-.22a20.46,20.46,0,0,1,2.19.11A7.58,7.58,0,0,1,73,39.5a3.28,3.28,0,0,1,1.27,1,2.57,2.57,0,0,1,.53,1.82,3.47,3.47,0,0,1-.56,1.48,8,8,0,0,1-.77,1,29.9,29.9,0,0,1-3.27,2.83A85.42,85.42,0,0,0,58,58.16a51.19,51.19,0,0,0-8.62,13.42,62.75,62.75,0,0,0-4.51,15.36,62,62,0,0,0-.57,16,53.25,53.25,0,0,0,3.81,15.41,59.91,59.91,0,0,0,8.1,13.72,84.88,84.88,0,0,0,11.09,11.67,162.43,162.43,0,0,0,12.8,10.06c2.18,1.59,4.41,3.08,6.72,4.53s4.69,2.83,7,4.53a32.29,32.29,0,0,1,6.35,6,38.42,38.42,0,0,1,4.63,7.33c2.57,5.24,3.62,11,4.15,16.56s.72,11,1.37,16.4c.32,2.69.59,5.39,1.09,8.05.24,1.33.41,2.68.71,4l.86,4a105.88,105.88,0,0,0,5,15.35c2,5,4.57,10,6.11,15.52a42.74,42.74,0,0,1,.95,4.21c.2,1.42.36,2.85.47,4.28s.1,2.87,0,4.28-.15,2.84-.3,4.24a73.82,73.82,0,0,1-11.46,31.39,63.82,63.82,0,0,1-10.7,13A27.64,27.64,0,0,1,99.65,320a11.58,11.58,0,0,1-2.08,1.06,6.36,6.36,0,0,1-1.29.35c-.26,0-.53,0-.8,0a4.06,4.06,0,0,1-.94-.24,2.77,2.77,0,0,1-1.33-1.34,4.46,4.46,0,0,1-.41-1.35,11,11,0,0,1-.1-2.33,35.87,35.87,0,0,1,.51-4.24c1-5.49,2.37-10.8,3.09-16.14a28.09,28.09,0,0,0,.29-4,7.18,7.18,0,0,0-.65-3.43,1.46,1.46,0,0,0-1-.72,3,3,0,0,0-1.52.11,13.09,13.09,0,0,0-3.39,1.69,50.94,50.94,0,0,0-6.26,5.1c-2,1.85-3.9,3.8-5.78,5.78-3.76,4-7.35,8.12-10.88,12.32s-7,8.48-10.38,12.79-6.79,8.63-10.14,13c6.36-9,12.85-17.82,19.69-26.44,3.43-4.3,6.92-8.56,10.59-12.67,1.84-2.05,3.73-4.07,5.71-6A51.39,51.39,0,0,1,89,287.9a14.21,14.21,0,0,1,3.93-2,5.07,5.07,0,0,1,2.54-.17,3.6,3.6,0,0,1,1.33.59,4.06,4.06,0,0,1,1,1,9.13,9.13,0,0,1,1,4.53,33.18,33.18,0,0,1-.24,4.26c-.66,5.56-2,10.92-2.83,16.27a34.05,34.05,0,0,0-.42,3.94,9.14,9.14,0,0,0,.1,1.78,2,2,0,0,0,.18.61c.08.14.1.12.07.11s0,0,.06,0a.82.82,0,0,1,.22,0,3.79,3.79,0,0,0,.69-.21,8.69,8.69,0,0,0,1.57-.85,25.09,25.09,0,0,0,3-2.41,61.73,61.73,0,0,0,10-12.54,76.6,76.6,0,0,0,7-14.52,66.25,66.25,0,0,0,3.6-15.61c.13-1.33.16-2.65.25-4s0-2.64,0-3.95-.27-2.61-.46-3.9a39.18,39.18,0,0,0-.9-3.82c-1.43-5-4-9.91-6.09-15.05A103,103,0,0,1,109.24,226l-.91-4.09c-.32-1.36-.49-2.75-.74-4.12-.52-2.74-.81-5.51-1.15-8.27-.67-5.52-.88-11.06-1.42-16.43a44.28,44.28,0,0,0-3.81-15.22,35,35,0,0,0-4.14-6.58A27.91,27.91,0,0,0,91.51,166c-2.1-1.54-4.47-2.92-6.81-4.41s-4.67-3-6.93-4.69C68.88,150.48,60,143.36,53.2,134.36a63.55,63.55,0,0,1-8.47-14.64,57,57,0,0,1-3.93-16.48,65.74,65.74,0,0,1,5.78-32.93,53.85,53.85,0,0,1,9.35-14A87.2,87.2,0,0,1,68.71,45.55a26.62,26.62,0,0,0,3-2.5,2.7,2.7,0,0,0,.72-1s0,0,0-.09a1.09,1.09,0,0,0-.37-.26,5.73,5.73,0,0,0-1.63-.39,15,15,0,0,0-1.93-.12c-1.31,0-2.66,0-4,.13C59,41.64,53.61,42.52,48,42.59a17.78,17.78,0,0,1-4.35-.43,3.76,3.76,0,0,1-2.23-1.46,2.17,2.17,0,0,1-.3-1.61,3,3,0,0,1,.23-.7,5.93,5.93,0,0,1,.34-.56c1-1.28,2-2.07,2.84-3.08a8.21,8.21,0,0,0,1-1.53,4.08,4.08,0,0,0,.36-1.67,6.5,6.5,0,0,0-1.26-3.4A18.84,18.84,0,0,0,42,25.23a44.69,44.69,0,0,0-6.55-4.81,141.27,141.27,0,0,0-14.49-7.7C16,10.35,10.92,8.23,5.85,6.11Z"/><circle class="cls-1" cx="5" cy="5.25" r="5"/><path class="cls-1" d="M0,5.25A4.82,4.82,0,0,0,1.51,8.74,4.8,4.8,0,0,0,5,10,4.66,4.66,0,0,0,8.23,8.48,4.73,4.73,0,0,0,8.23,2,4.66,4.66,0,0,0,5,.51,4.73,4.73,0,0,0,0,5.25Zm0,0A5.26,5.26,0,0,1,1.41,1.67,5.18,5.18,0,0,1,5,0,5.25,5.25,0,1,1,0,5.25Z"/><circle class="cls-1" cx="42.28" cy="40.63" r="5"/><path class="cls-1" d="M37.28,40.63a4.77,4.77,0,0,0,5,4.75,4.76,4.76,0,0,0,0-9.5,4.75,4.75,0,0,0-5,4.75Zm0,0a5.25,5.25,0,0,1,8.84-3.84,5.25,5.25,0,0,1-3.84,9.08,5.16,5.16,0,0,1-3.58-1.66A5.23,5.23,0,0,1,37.28,40.63Z"/><circle class="cls-1" cx="73.99" cy="40.63" r="5"/><path class="cls-1" d="M69,40.63a4.75,4.75,0,0,0,5,4.75,4.76,4.76,0,0,0,0-9.5,4.73,4.73,0,0,0-5,4.75Zm0,0a5.25,5.25,0,1,1,5,5.24,5.18,5.18,0,0,1-3.59-1.66A5.26,5.26,0,0,1,69,40.63Z"/><circle class="cls-1" cx="47.28" cy="120.11" r="5"/><path class="cls-1" d="M42.28,120.11a4.75,4.75,0,0,0,5,4.75,4.76,4.76,0,0,0,0-9.5,4.75,4.75,0,0,0-5,4.75Zm0,0a5.28,5.28,0,0,1,5-5.25,5.28,5.28,0,0,1,3.84,1.41,5.27,5.27,0,0,1,0,7.68,5.31,5.31,0,0,1-3.84,1.4,5.14,5.14,0,0,1-3.58-1.66A5.23,5.23,0,0,1,42.28,120.11Z"/><circle class="cls-1" cx="99.82" cy="172.3" r="5"/><path class="cls-1" d="M94.82,172.3a4.73,4.73,0,0,0,5,4.75,4.75,4.75,0,0,0,0-9.49,4.73,4.73,0,0,0-5,4.74Zm0,0a5.26,5.26,0,0,1,5-5.25,5.26,5.26,0,1,1,0,10.5,5.24,5.24,0,0,1-5-5.25Z"/><circle class="cls-1" cx="123.84" cy="266.44" r="5"/><path class="cls-1" d="M118.84,266.44a4.73,4.73,0,0,0,5,4.74,4.75,4.75,0,0,0,4.5-4.74,4.77,4.77,0,0,0-4.5-4.75,4.75,4.75,0,0,0-5,4.75Zm0,0a5.25,5.25,0,0,1,1.42-3.59,5.18,5.18,0,0,1,3.58-1.66,5.28,5.28,0,0,1,3.84,1.41,5.26,5.26,0,0,1,0,7.67,5.28,5.28,0,0,1-3.84,1.41,5.14,5.14,0,0,1-3.58-1.66A5.23,5.23,0,0,1,118.84,266.44Z"/><circle class="cls-1" cx="94.82" cy="320.29" r="5"/><path class="cls-1" d="M89.82,320.29a4.75,4.75,0,0,0,5,4.75,4.77,4.77,0,0,0,4.5-4.75,4.77,4.77,0,0,0-4.5-4.75,4.75,4.75,0,0,0-5,4.75Zm0,0a5.28,5.28,0,0,1,5-5.25,5.28,5.28,0,0,1,3.84,1.41,5.27,5.27,0,0,1,0,7.68,5.31,5.31,0,0,1-3.84,1.4,5.14,5.14,0,0,1-3.58-1.66A5.23,5.23,0,0,1,89.82,320.29Z"/><circle class="cls-1" cx="94.82" cy="287.92" r="5"/><path class="cls-1" d="M89.82,287.92a4.73,4.73,0,0,0,5,4.74,4.75,4.75,0,0,0,0-9.49,4.77,4.77,0,0,0-3.48,1.26A4.83,4.83,0,0,0,89.82,287.92Zm0,0a5.25,5.25,0,0,1,1.42-3.59,5.14,5.14,0,0,1,3.58-1.66,5.28,5.28,0,0,1,3.84,1.41,5.26,5.26,0,0,1,0,7.67,5.28,5.28,0,0,1-3.84,1.41,5.14,5.14,0,0,1-3.58-1.66A5.23,5.23,0,0,1,89.82,287.92Z"/><circle class="cls-1" cx="46.63" cy="338.49" r="5"/><path class="cls-1" d="M41.64,338.49a4.73,4.73,0,0,0,5,4.75,4.64,4.64,0,0,0,3.23-1.52,4.75,4.75,0,0,0-3.23-8,4.73,4.73,0,0,0-5,4.74Zm0,0a5.24,5.24,0,0,1,5-5.24,5.24,5.24,0,0,1,5.5,5.24,5.24,5.24,0,0,1-5.5,5.25,5.26,5.26,0,0,1-3.58-1.66A5.19,5.19,0,0,1,41.64,338.49Z"/></g></g></svg>