<?xml version="1.0" encoding="utf-8"?>
<!-- Generator: Adobe Illustrator 24.0.2, SVG Export Plug-In . SVG Version: 6.00 Build 0)  -->
<svg version="1.1" id="Capa_1" xmlns="http://www.w3.org/2000/svg" xmlns:xlink="http://www.w3.org/1999/xlink" x="0px" y="0px"
	 viewBox="0 0 300 759" style="enable-background:new 0 0 300 759;" xml:space="preserve">
<style type="text/css">
	.st0{fill:none;stroke:#DFE1E5;stroke-miterlimit:10;}
	.st1{fill:#E1E1E1;}
	.st2{fill:#BFC3CB;}
	.st3{font-family:'HelveticaNeue';}
	.st4{font-size:22.3904px;}
</style>
<path class="st0" d="M37.5,18.1c55.7,27.6,69.1,44.6,67.8,55.5c-0.9,7.6-8.9,11.9-7.7,16.3c3,10.5,49.3-6.7,52.4,3.3
	c2,6.3-15.6,15.4-29.4,35.9c-20.4,30.2-27.5,77.5-19.2,115.8c9.9,45.3,40.5,73.8,57.6,89.7c16.8,15.7,25.1,17.6,34.5,34.3
	c13.2,23.3,11.7,45.4,14.1,76.7c6.4,82.9,29.5,86.4,25.6,137c-4.6,59-39.9,105.2-47.3,101.1c-7.6-4.2,11.3-63.1,1.3-70.1
	c-7.8-5.5-31.3,21.8-81.9,109.3"/>
<ellipse class="st1" cx="38.3" cy="19.2" rx="6.1" ry="7.7"/>
<ellipse class="st1" cx="152.4" cy="92.2" rx="6.1" ry="7.7"/>
<ellipse class="st1" cx="99.2" cy="194.6" rx="6.1" ry="7.7"/>
<ellipse class="st1" cx="97.3" cy="92.2" rx="6.1" ry="7.7"/>
<ellipse class="st1" cx="135.5" cy="309.2" rx="6.1" ry="7.7"/>
<ellipse class="st1" cx="208.5" cy="418" rx="6.1" ry="7.7"/>
<ellipse class="st1" cx="227.5" cy="527" rx="6.1" ry="7.7"/>
<ellipse class="st1" cx="227.5" cy="627" rx="6.1" ry="7.7"/>
<ellipse class="st1" cx="105.3" cy="722.8" rx="6.1" ry="7.7"/>
<ellipse class="st1" cx="184.4" cy="616.4" rx="6.1" ry="7.7"/>
<text transform="matrix(0.732 0 0 1 51.5137 19.1885)" class="st2 st3 st4">Chiang Mai</text>
<text transform="matrix(0.732 0 0 1 -4.882812e-04 99.9268)" class="st2 st3 st4">Chiang Rai</text>
<text transform="matrix(0.732 0 0 1 164.8936 99.9268)" class="st2 st3 st4">Phuket</text>
<text transform="matrix(0.732 0 0 1 115.2373 202.3389)" class="st2 st3 st4">Bangkok</text>
<text transform="matrix(0.732 0 0 1 41.1963 316.9175)" class="st2 st3 st4">Khon Kaen</text>
<text transform="matrix(0.732 0 0 1 221.4971 425.7471)" class="st2 st3 st4">Ranong</text>
<text transform="matrix(0.732 0 0 1 111.3115 536.4238)" class="st2 st3 st4">Kanchanaburi</text>
<text transform="matrix(0.732 0 0 1 238.3945 634.7549)" class="st2 st3 st4">Saraburi</text>
<text transform="matrix(0.732 0 0 1 91.2588 619.3184)" class="st2 st3 st4">Ratchaburi</text>
<text transform="matrix(0.732 0 0 1 97.3115 748.2305)" class="st2 st3 st4">Krabi</text>
</svg>
